<?xml version="1.0" encoding="utf-8"?>
<!-- Generator: Adobe Illustrator 16.0.4, SVG Export Plug-In . SVG Version: 6.00 Build 0)  -->
<!DOCTYPE svg PUBLIC "-//W3C//DTD SVG 1.1//EN" "http://www.w3.org/Graphics/SVG/1.1/DTD/svg11.dtd">
<svg version="1.1" id="Layer_1" xmlns="http://www.w3.org/2000/svg" xmlns:xlink="http://www.w3.org/1999/xlink" x="0px" y="0px"
	 width="243.696px" height="63.529px" viewBox="2.483 -1.385 243.696 63.529" enable-background="new 2.483 -1.385 243.696 63.529"
	 xml:space="preserve">
<g>
	<g id="the">
		<path fill="#FFFFFF" d="M5.078,13.414v9.885H2.483v2.595h2.553v11.285c0,0,0.124,1.152,0.742,1.936s1.071,1.648,1.606,1.936
			c0.535,0.289,0.782,0.619,1.647,0.66s1.895-0.041,1.895-0.041l-0.041-3.213H9.732c0,0-1.318-0.248-1.318-2.143
			S8.372,25.977,8.372,25.977l2.595-0.042V23.34l-2.595-0.041l-0.041-9.844L5.078,13.414z"/>
		<path fill="#FFFFFF" d="M13.686,13.414v28.297l3.213-0.041l0.083-14.252c0,0,0.783-1.482,2.636-1.482
			c1.854,0,2.595,1.565,2.595,1.565l0.041,14.169h3.336V25.524c0,0-0.782-1.647-2.842-2.966c-1.482-0.66-1.606-0.66-2.471-0.66
			c-1.524,0-3.048,1.401-3.048,1.401h-0.329l-0.083-9.803L13.686,13.414z"/>
		<path fill="#FFFFFF" d="M38.688,30.466c-0.017-2.121,0.407-4.726-0.747-6.613c-1.01-1.653-3.023-2.719-4.958-2.482
			c-1.509,0.184-3.664,0.973-4.103,2.565c-0.655,2.374-0.421,4.879-0.348,7.308c0.072,2.395-0.292,4.827,0.185,7.196
			c0.039,0.191,0.202,0.336,0.311,0.49c0.124,0.178,0.256,0.352,0.392,0.521c0.484,0.607,1.025,1.242,1.68,1.666
			c0.367,0.24,0.843,0.455,1.279,0.521c0.486,0.074,0.98,0.041,1.469,0.033c0.26-0.004,0.521,0.006,0.778-0.031
			c0.258-0.035,0.497-0.129,0.74-0.217c0.381-0.141,0.762-0.283,1.126-0.463c0.207-0.104,0.408-0.215,0.6-0.344
			c0.5-0.332,1.04-0.74,1.315-1.287c0.139-0.277,0.239-0.643,0.239-0.957c0-2.306,0-4.529,0-4.529h-3.212l-0.123,3.336
			c0,0,0.082,1.152-1.524,1.152c-1.029,0-2.348,0.041-2.348-1.482c0-1.029,0.082-6.342,0.082-6.342
			C31.644,30.507,38.688,30.466,38.688,30.466z M31.52,25.977c0-1.03,1.359-1.36,1.359-1.36s0.618-0.124,1.277,0.041
			c0.68,0.17,1.174,1.257,1.174,1.257l-0.021,1.998L31.5,27.974C31.5,27.974,31.52,26.759,31.52,25.977z"/>
	</g>
	<g id="toast">
		<path id="T" fill="#FFFFFF" d="M98.374,2.254c-2.762-3.175-6.345-4.174-10.399-3.115c-2.377,0.621-4.754,1.331-7.021,2.268
			c-5.308,2.191-10.738,2.396-16.278,1.331c-3.355-0.646-6.455-2.045-9.591-3.359c-4.037-1.69-8.324-0.523-11.564,2.961
			c-3.032,3.261-4.201,7.722-2.334,11.024c5.347,9.464,5.948,19.706,5.388,30.184c-0.263,3.818-0.576,7.639-0.333,11.473
			c0.223,3.52,1.035,4.461,4.4,5.152c13.171,2.701,26.374,2.406,39.601,0.436c5.526-0.824,6.482-1.783,7.184-7.314
			c0.688-5.436,0.3-10.873,0.278-16.314c-0.031-7.958-0.662-15.933,2.867-23.559C102.378,9.52,101.208,5.511,98.374,2.254z
			 M90.033,12.658c0,0-0.106,6.732-0.106,7.861c0,1.129-1.171,1.172-1.171,1.172s-8.309-0.043-10.184-0.043
			c-1.874,0-2.172,1.747-2.172,1.747s-0.085,28.716-0.085,29.995s-0.767,1.492-0.767,1.492s-6.519,0-8.053,0
			s-1.449-1.449-1.449-1.449s0-27.865,0-29.697c0-1.832-1.491-2.045-1.491-2.045s-9.8-0.043-10.78-0.043
			c-0.979,0-1.023-1.022-1.023-1.022v-8.096c0-1.491,1.364-1.427,1.364-1.427s32.51,0,34.363,0
			C90.332,11.103,90.033,12.658,90.033,12.658z"/>
		<path id="O" fill="#FFFFFF" d="M135.697,24.587c-0.18-7.638-4.285-12.771-11.588-14.413c-3.859-0.868-7.77-0.852-11.63,0.03
			c-6.403,1.461-10.471,5.386-11.138,11.976c-0.807,7.953-0.899,15.986,0.052,23.926c0.793,6.619,5.069,10.631,11.571,11.859
			c2.518,0.475,5.06,0.611,7.614,0.441c9.832-0.658,15.115-6.322,15.13-16.205c0.006-2.723,0.001-5.445,0.001-8.169
			C135.708,30.884,135.77,27.734,135.697,24.587z M123.452,42.912c-0.508,2.973-1.953,3.992-5.477,3.918
			c-2.96-0.062-4.527-1.287-4.756-4.162c-0.458-5.756-0.476-11.532-0.001-17.288c0.246-2.975,1.852-4.189,4.993-4.216
			c3.347-0.029,4.814,1.135,5.283,4.199c0.066,0.419,0.162,0.84,0.166,1.262c0.016,2.462,0.007,4.924,0.007,8.256
			C123.56,36.977,123.959,39.959,123.452,42.912z"/>
		<path id="A" fill="#FFFFFF" d="M171.892,24.816c-0.111-7.904-3.168-12.565-9.202-14.242c-4.738-1.317-9.581-1.427-14.38-0.233
			c-6.307,1.57-9.472,5.342-10.066,11.848c-0.499,5.441-0.103,10.895-0.24,15.412c0,6.21,0.03,11.489-0.017,16.772
			c-0.019,2.037,0.807,2.975,2.902,2.879c2.04-0.092,4.091-0.1,6.13,0.002c2.168,0.107,3.031-0.719,3.046-2.965
			c0.047-7.414,0.112-7.414,7.526-6.768c0.086,0.008,0.169,0.012,0.254,0.018c1.32,0.061,2.036,0.652,1.991,2.072
			c-0.052,1.617-0.002,3.236-0.01,4.855c-0.01,1.848,0.738,2.859,2.751,2.783c2.21-0.086,4.429-0.082,6.642-0.016
			c1.981,0.059,2.73-0.855,2.723-2.777C171.906,44.576,172.029,34.695,171.892,24.816z M153.4,36.003
			c-3.165,0.011-3.363-0.2-3.374-3.282c-0.006-2.287-0.064-4.577,0.02-6.861c0.101-2.785,1.462-3.701,5.188-3.657
			c3.339,0.039,4.486,0.953,4.584,3.708c0.045,1.269,0.008,2.541,0.009,3.812C159.747,36.72,160.83,35.978,153.4,36.003z"/>
		<path id="S" fill="#FFFFFF" d="M191.661,9.756c3.17,0.032,6.281,0.411,9.209,1.726c4.612,2.071,7.326,5.66,8.352,10.561
			c0.425,2.024,0.043,3.485-2.428,3.816c-2.098,0.281-4.158,0.843-6.223,1.337c-1.746,0.417-2.845,0.101-3.421-1.885
			c-0.968-3.334-4.546-4.932-7.727-3.706c-1.005,0.388-1.865,0.961-2.02,2.083c-0.142,1.051,0.592,1.731,1.377,2.282
			c1.9,1.333,4.105,2.016,6.231,2.858c2.843,1.126,5.691,2.235,8.27,3.916c9.522,6.216,9.027,18.086-1.162,23.154
			c-6.735,3.352-13.859,3.33-20.728,0.295c-4.912-2.172-7.342-6.369-7.92-11.666c-0.191-1.734,0.434-2.705,2.259-3
			c2.263-0.369,4.486-0.959,6.732-1.424c1.655-0.342,2.599,0.028,3.022,1.996c0.946,4.381,6.335,6.162,9.93,3.465
			c1.74-1.305,1.799-2.824,0.083-4.182c-1.767-1.395-3.922-2.006-5.985-2.777c-3.427-1.281-6.888-2.49-9.802-4.79
			c-7.412-5.849-6.427-17.281,1.855-21.88C184.719,10.185,188.15,9.77,191.661,9.756z"/>
		<path id="T_1_" fill="#FFFFFF" d="M228.971,10.869c4.941-0.001,9.882,0.06,14.822-0.034c1.784-0.034,2.458,0.577,2.38,2.355
			c-0.101,2.296-0.066,4.601-0.011,6.9c0.038,1.537-0.705,2.185-2.15,2.191c-2.129,0.009-4.266,0.096-6.389-0.019
			c-2.316-0.125-3.194,0.835-3.178,3.146c0.068,9.542-0.048,19.085,0.08,28.625c0.034,2.512-0.837,3.391-3.251,3.225
			c-1.865-0.129-3.752-0.119-5.62-0.002c-2.317,0.146-3.166-0.793-3.146-3.123c0.082-9.369,0.036-18.742,0.033-28.114
			c-0.001-3.59-0.14-3.725-3.743-3.73c-1.873-0.002-3.747-0.004-5.621-0.002c-1.571,0.002-2.346-0.73-2.316-2.347
			c0.039-2.13,0.089-4.265-0.017-6.389c-0.101-2.064,0.934-2.7,2.789-2.689C218.746,10.889,223.859,10.87,228.971,10.869z"/>
	</g>
</g>
</svg>
